Coordinates
version=1
nRows=9
nColumns=63
inDegrees=yes

Units are S.I. units (second, meters, Newtons, ...)
If the header above contains a line with 'inDegrees', this indicates whether rotational values are in degrees (yes) or radians (no).

endheader
time	pelvis_tilt	pelvis_list	pelvis_rotation	pelvis_tx	pelvis_ty	pelvis_tz	hip_flexion_r	hip_adduction_r	hip_rotation_r	knee_angle_r	knee_angle_r_beta	ankle_angle_r	subtalar_angle_r	mtp_angle_r	hip_flexion_l	hip_adduction_l	hip_rotation_l	knee_angle_l	knee_angle_l_beta	ankle_angle_l	subtalar_angle_l	mtp_angle_l	L5_S1_Flex_Ext	L5_S1_Lat_Bending	L5_S1_axial_rotation	L4_L5_Flex_Ext	L4_L5_Lat_Bending	L4_L5_axial_rotation	L3_L4_Flex_Ext	L3_L4_Lat_Bending	L3_L4_axial_rotation	L2_L3_Flex_Ext	L2_L3_Lat_Bending	L2_L3_axial_rotation	L1_L2_Flex_Ext	L1_L2_Lat_Bending	L1_L2_axial_rotation	L1_T12_Flex_Ext	L1_T12_Lat_Bending	L1_T12_axial_rotation	Abs_r3	Abs_r2	Abs_r1	Abs_t1	Abs_t2	neck_flexion	neck_bending	neck_rotation	arm_flex_r	arm_add_r	arm_rot_r	elbow_flex_r	pro_sup_r	wrist_flex_r	wrist_dev_r	arm_flex_l	arm_add_l	arm_rot_l	elbow_flex_l	pro_sup_l	wrist_flex_l	wrist_dev_l
      0.00000000	     -4.09514689	     -3.45381123	    107.93654401	      0.28637041	      0.72579522	      0.88366177	      0.68645177	      0.13378357	    -15.61615100	      1.05020684	      0.01832957	     22.61688982	      6.91852803	      0.00000000	      4.68858444	     -0.21852172	      7.25772168	      2.69544469	      0.04704438	     21.77620284	      2.13186407	      0.00000000	      0.23972147	      0.08234558	     -1.57733832	      0.44518673	      0.10951962	     -1.67592196	      0.39383840	      0.20021504	     -1.67592196	      0.27397766	      0.20021504	     -1.38017103	      0.22260535	      0.16791910	     -1.28158738	      0.13697685	      0.12755330	     -1.18300374	      1.71230646	      0.93150966	     -8.77268252	      0.00000000	      0.00000000	     13.14000191	     -0.96663401	     -0.30003019	     16.54122486	    -14.23764809	     69.17733693	     63.28150267	      9.59898391	    -17.82911360	     23.63007608	      6.11542826	     -7.40042164	     42.00796257	     65.09225929	     88.13660011	      4.66901079	      8.95802876
      0.01666667	     -4.01978204	     -3.56252846	    107.49277623	      0.28704458	      0.72631779	      0.88390902	      1.02315062	      0.08767354	    -17.37389029	      1.06605821	      0.01860623	     23.04924429	     10.15715216	      0.00000000	      5.19680700	     -0.26596803	      6.24508087	      3.46540954	      0.06048281	     22.31150385	      2.51042312	      0.00000000	      0.22236412	      0.09607387	     -1.42109006	      0.41295240	      0.12777825	     -1.50990819	      0.36532201	      0.23359401	     -1.50990819	      0.25413995	      0.23359401	     -1.24345380	      0.20648732	      0.19591384	     -1.15463567	      0.12705886	      0.14881843	     -1.06581754	      1.58832466	      1.08680685	     -7.90367657	      0.00000000	      0.00000000	     13.16926433	     -1.74475340	     -0.96143745	     14.57014636	    -14.04277870	     65.12164510	     64.47397501	      7.15512244	    -23.79405413	     23.19604558	      6.13975719	     -7.62575513	     42.78400715	     65.50773045	     88.57711609	      2.42788802	      7.32257488
      0.03333333	     -3.98424700	     -3.59675844	    107.18124246	      0.28749628	      0.72681835	      0.88412431	      1.19391999	      0.07306148	    -17.25484301	      1.01766432	      0.01776159	     23.13327571	     10.59882089	      0.00000000	      5.59625812	     -0.28459385	      5.70374241	      4.25469545	      0.07425844	     22.53319994	      2.34852529	      0.00000000	      0.20452723	      0.10615633	     -1.38049061	      0.37982752	      0.14118792	     -1.46677128	      0.33601779	      0.25810851	     -1.46677128	      0.23375417	      0.25810851	     -1.20792929	      0.18992399	      0.21647399	     -1.12164862	      0.11686686	      0.16443616	     -1.03536796	      1.46091755	      1.20086167	     -7.67787465	      0.00000000	      0.00000000	     13.26910355	     -2.34992182	     -1.02858011	     13.89513398	    -13.89597997	     63.77733474	     64.62525333	      6.75562480	    -23.97261315	     22.99762242	      5.65968478	     -7.75376094	     42.19082901	     65.99084836	     88.78144854	      1.62858551	      6.78312904
      0.05000000	     -3.89562787	     -3.65557321	    106.96052110	      0.28756311	      0.72706198	      0.88397372	      1.37710250	      0.08878913	    -17.72568721	      1.05645437	      0.01843861	     23.40664514	     11.65678838	      0.00000000	      6.00617883	     -0.43703017	      3.40359578	      5.06004876	      0.08831451	     23.10900507	      4.77089347	      0.00000000	      0.20782066	      0.11990707	     -1.27438546	      0.38594374	      0.15947640	     -1.35403455	      0.34142856	      0.29154204	     -1.35403455	      0.23751823	      0.29154204	     -1.11508728	      0.19298226	      0.24451449	     -1.03543818	      0.11874872	      0.18573605	     -0.95578909	      1.48444217	      1.35641271	     -7.08774960	      0.00000000	      0.00000000	     13.32566539	     -2.79735694	     -1.42353331	     12.77490340	    -13.79738782	     61.34046760	     65.43135142	      6.21266653	    -27.36167626	     23.47476322	      5.52652716	     -7.91744391	     42.60859045	     66.25249748	     88.81144935	      0.72121981	      6.40787099
      0.06666667	     -3.83355016	     -3.60247852	    106.77145412	      0.28748300	      0.72744199	      0.88375527	      1.39466372	      0.12523409	    -17.30562944	      1.07786363	      0.01881227	     23.46847245	     11.48187606	      0.00000000	      6.16924623	     -0.54054229	      2.60084857	      5.65177883	      0.09864215	     23.12539489	      5.18096993	      0.00000000	      0.20061415	      0.13312113	     -1.25307796	      0.37256055	      0.17705111	     -1.33139533	      0.32958900	      0.32367072	     -1.33139533	      0.22928192	      0.32367072	     -1.09644322	      0.18629030	      0.27146061	     -1.01812584	      0.11463093	      0.20620463	     -0.93980847	      1.43296685	      1.50589287	     -6.96924370	      0.00000000	      0.00000000	     13.42172344	     -3.06508874	     -1.38710397	     12.72506548	    -13.94921415	     61.48207050	     65.45137111	      7.25278264	    -25.58554895	     23.41178121	      5.10098584	     -8.01236332	     42.11946337	     66.55143108	     88.80765030	      0.72475108	      6.70385217
      0.08333333	     -3.79303394	     -3.64178197	    106.75828925	      0.28720140	      0.72755992	      0.88346581	      1.46153947	      0.12884532	    -16.52738483	      1.10714071	      0.01932325	     23.54034768	     10.54887898	      0.00000000	      6.45283181	     -0.60362381	      1.70365098	      6.31691388	      0.11025095	     23.15920677	      5.93322521	      0.00000000	      0.21521986	      0.14015416	     -1.30829570	      0.39968479	      0.18640503	     -1.39006419	      0.35358470	      0.34077082	     -1.39006419	      0.24597477	      0.34077082	     -1.14475874	      0.19985316	      0.28580236	     -1.06299026	      0.12297663	      0.21709879	     -0.98122178	      1.53729391	      1.58545188	     -7.27634822	      0.00000000	      0.00000000	     13.47317863	     -3.10302351	     -0.90263730	     13.04956035	    -13.96738791	     62.03952240	     64.97325511	      8.75921091	    -22.69718888	     25.23285085	      4.37069477	     -8.05188583	     40.85732328	     66.99176515	     88.75332453	      1.72202416	      7.81589390
      0.10000000	     -3.76086277	     -3.43359885	    106.74117447	      0.28682895	      0.72799894	      0.88312172	      1.24739982	      0.20472632	    -15.57204666	      1.13148844	      0.01974820	     23.51113971	      9.40024906	      0.00000000	      6.36694963	     -0.71681955	      1.08409867	      6.74519878	      0.11772593	     23.09611367	      6.36308780	      0.00000000	      0.19041870	      0.15222017	     -1.28128373	      0.35362656	      0.20245282	     -1.36136397	      0.31283887	      0.37010812	     -1.36136397	      0.21762953	      0.37010812	     -1.12112327	      0.17682280	      0.31040737	     -1.04104303	      0.10880524	      0.23578904	     -0.96096280	      1.36014170	      1.72194498	     -7.12611574	      0.00000000	      0.00000000	     13.56079714	     -3.16526273	     -0.94703597	     13.13005243	    -14.29301638	     62.63926652	     65.01908260	     12.02824758	    -20.18201956	     24.32513983	      4.34486791	     -8.14557803	     41.03171276	     67.10250212	     88.71077010	      1.59736604	      8.29717991
      0.11666667	     -3.76803530	     -3.49141991	    107.12072315	      0.28605961	      0.72796530	      0.88272720	      1.31842629	      0.11112175	    -16.88427231	      1.34882213	      0.02354139	     23.94075517	     10.75693096	      0.00000000	      6.60904582	     -0.65248366	      1.29304216	      7.24640210	      0.12647358	     22.92487449	      6.13492094	      0.00000000	      0.21310513	      0.15293034	     -1.43640320	      0.39575754	      0.20339735	     -1.52617840	      0.35011042	      0.37183482	     -1.52617840	      0.24355785	      0.37183482	     -1.25685280	      0.19788942	      0.31185554	     -1.16707760	      0.12176827	      0.23688909	     -1.07730240	      1.52218864	      1.72997856	     -7.98884369	      0.00000000	      0.00000000	     13.44595991	     -3.03008591	     -0.17878261	     13.46711165	    -14.07977069	     63.24561557	     65.03097916	      8.94801167	    -21.97536157	     25.42356476	      3.57489445	     -8.11413112	     39.33402155	     67.61680570	     88.74206817	      3.60570547	      9.86965795
      0.13333333	     -3.82730956	     -3.45265030	    107.24011332	      0.28564506	      0.72814046	      0.88221954	      1.27877430	      0.01463793	    -17.02352766	      1.53753549	      0.02683506	     24.10284631	     10.83374883	      0.00000000	      6.59588010	     -0.55582547	      1.79968482	      7.51437755	      0.13115063	     22.62187618	      5.19977364	      0.00000000	      0.21406855	      0.14795455	     -1.42790714	      0.39754671	      0.19677955	     -1.51715134	      0.35169323	      0.35973669	     -1.51715134	      0.24465895	      0.35973669	     -1.24941875	      0.19878406	      0.30170891	     -1.16017455	      0.12231877	      0.22918159	     -1.07093036	      1.52907028	      1.67369143	     -7.94159116	      0.00000000	      0.00000000	     13.15352778	     -2.99542627	     -0.32977132	     13.21672193	    -14.09359677	     62.94026999	     65.21480790	      7.74597926	    -22.84039784	     25.47258154	      3.69059752	     -8.32231225	     39.87167948	     67.76284941	     88.73532463	      3.09763533	      9.96421999
